<svg width="36" height="36" viewBox="0 0 36 36" fill="none" xmlns="http://www.w3.org/2000/svg">
<path d="M35.303 17.7581C35.303 27.423 27.468 35.2581 17.803 35.2581C8.13799 35.2581 0.302979 27.423 0.302979 17.7581C0.302979 8.09307 8.13799 0.258057 17.803 0.258057C27.468 0.258057 35.303 8.09307 35.303 17.7581Z" fill="#F5F4EE"/>
<path d="M32.8892 17.4563C32.8892 9.28263 26.1219 2.67185 17.803 2.67185C9.46246 2.67185 2.71677 9.28263 2.71677 17.4563C2.71677 25.63 9.46246 32.2408 17.803 32.2408C26.1219 32.2408 32.8892 25.63 32.8892 17.4563ZM19.3116 20.5822H15.9495V19.674C15.9495 18.8714 16.1219 18.1956 16.4668 17.6042C16.8116 17.0128 17.4582 16.4003 18.3633 15.7244C19.2469 15.1119 19.8288 14.605 20.109 14.2249C20.4107 13.8447 20.5401 13.4012 20.5401 12.9154C20.5401 12.3874 20.3461 11.9861 19.9366 11.6904C19.5271 11.4158 18.9668 11.2891 18.234 11.2891C16.984 11.2891 15.54 11.6904 13.9237 12.493L12.5444 9.78952C14.4194 8.75461 16.4237 8.22659 18.5142 8.22659C20.2599 8.22659 21.6392 8.649 22.6521 9.45159C23.6866 10.2753 24.1823 11.3736 24.1823 12.7253C24.1823 13.6335 23.9883 14.415 23.5573 15.0697C23.1478 15.7456 22.3288 16.4848 21.1651 17.3085C20.3461 17.8999 19.8504 18.3434 19.6349 18.6391C19.4194 18.9559 19.3116 19.3572 19.3116 19.843V20.5822ZM16.1435 26.3693C15.7556 26.0102 15.5616 25.4822 15.5616 24.8275C15.5616 24.1305 15.734 23.6025 16.1219 23.2434C16.5099 22.8843 17.0487 22.7154 17.7814 22.7154C18.4711 22.7154 19.0099 22.9055 19.3978 23.2645C19.7857 23.6236 19.9797 24.1516 19.9797 24.8275C19.9797 25.4611 19.7857 25.9891 19.3978 26.3481C19.0099 26.7283 18.4711 26.9184 17.7814 26.9184C17.0702 26.9184 16.5314 26.7283 16.1435 26.3693Z" fill="#E43027"/>
</svg>
