<svg width="35" height="35" viewBox="0 0 35 35" fill="none" xmlns="http://www.w3.org/2000/svg">
<path d="M35 17.5C35 7.825 27.15 0 17.5 0C7.825 0 0 7.825 0 17.5C0 27.175 7.825 35 17.5 35C27.15 35 35 27.175 35 17.5ZM19.25 21.2H15.35V20.125C15.35 19.175 15.55 18.375 15.95 17.675C16.35 16.975 17.1 16.25 18.15 15.45C19.175 14.725 19.85 14.125 20.175 13.675C20.525 13.225 20.675 12.7 20.675 12.125C20.675 11.5 20.45 11.025 19.975 10.675C19.5 10.35 18.85 10.2 18 10.2C16.55 10.2 14.875 10.675 13 11.625L11.4 8.425C13.575 7.2 15.9 6.575 18.325 6.575C20.35 6.575 21.95 7.075 23.125 8.025C24.325 9 24.9 10.3 24.9 11.9C24.9 12.975 24.675 13.9 24.175 14.675C23.7 15.475 22.75 16.35 21.4 17.325C20.45 18.025 19.875 18.55 19.625 18.9C19.375 19.275 19.25 19.75 19.25 20.325V21.2ZM15.575 28.05C15.125 27.625 14.9 27 14.9 26.225C14.9 25.4 15.1 24.775 15.55 24.35C16 23.925 16.625 23.725 17.475 23.725C18.275 23.725 18.9 23.95 19.35 24.375C19.8 24.8 20.025 25.425 20.025 26.225C20.025 26.975 19.8 27.6 19.35 28.025C18.9 28.475 18.275 28.7 17.475 28.7C16.65 28.7 16.025 28.475 15.575 28.05Z" fill="#F6C852"/>
</svg>
